<svg xmlns="http://www.w3.org/2000/svg" viewBox="0 0 456 24" width="456" height="24"><path d="M11.8 17.4s-3.6-2.3-3.6-4.9c0-1.3.65-2.2 1.437-2.775.788-.575 1.713-.825 2.263-.825 1.1 0 3.7.9 3.6 3.6-.1 2.7-3.7 4.9-3.7 4.9M35.8 17.4s-3.622-2.313-3.622-4.897c0-1.258.66-2.11 1.46-2.632.776-.585 1.692-.838 2.227-.838 1.118-.063 3.759.79 3.657 3.47C39.421 15.189 35.8 17.4 35.8 17.4M59.8 17.4s-3.673-2.342-3.673-4.89c0-1.162.684-1.904 1.512-2.304.751-.605 1.646-.868 2.146-.868 1.158-.205 3.893.537 3.788 3.172-.105 2.654-3.773 4.89-3.773 4.89M83.8 17.4s-3.73-2.374-3.73-4.881c0-1.057.711-1.676 1.571-1.94.722-.628 1.593-.901 2.055-.901 1.202-.364 4.043.255 3.934 2.841-.11 2.616-3.83 4.881-3.83 4.881M107.8 17.4s-3.769-2.397-3.769-4.876c0-.982.728-1.516 1.611-1.685.702-.645 1.557-.925 1.992-.925 1.233-.475 4.147.059 4.035 2.61-.112 2.592-3.869 4.876-3.869 4.876M131.8 17.4s-3.768-2.396-3.768-4.876c0-.984.728-1.52 1.61-1.692.702-.644 1.558-.924 1.994-.924 1.232-.472 4.144.064 4.032 2.616-.112 2.592-3.868 4.876-3.868 4.876M155.8 17.4s-3.704-2.359-3.704-4.885c0-1.105.698-1.78 1.544-2.107.735-.617 1.617-.886 2.097-.886 1.182-.291 3.974.384 3.867 2.993-.108 2.633-3.804 4.885-3.804 4.885M179.8 17.4s-3.553-2.273-3.553-4.907c0-1.388.628-2.39 1.389-3.078.812-.556 1.756-.797 2.338-.797 1.063.132 3.576 1.134 3.479 3.875-.097 2.731-3.653 4.907-3.653 4.907M203.8 17.4s-3.293-2.124-3.293-4.944c0-1.878.508-3.444 1.122-4.756.944-.448 1.995-.644 2.754-.644.858.864 2.888 2.429 2.81 5.4-.078 2.898-3.393 4.944-3.393 4.944M227.8 17.4s-2.9-1.9-2.9-5c0-2.617.325-5.033.719-7.288 1.143-.287 2.356-.412 3.381-.412.55 1.967 1.85 4.383 1.8 7.7-.05 3.15-3 5-3 5M251.8 17.4s-2.507-1.676-2.507-5.056c0-3.355.142-6.623.315-9.819 1.344-.127 2.718-.181 4.009-.181.242 3.07.812 6.337.79 10-.022 3.402-2.607 5.056-2.607 5.056M275.8 17.4s-2.247-1.527-2.247-5.093c0-3.845.022-7.677.048-11.497 1.476-.019 2.957-.028 4.425-.028.037 3.801.124 7.633.121 11.525-.003 3.569-2.347 5.093-2.347 5.093M299.8 17.4s-2.096-1.441-2.096-5.115c0-4.128-.048-8.286-.107-12.468 1.553.042 3.096.061 4.666.061-.082 4.224-.274 8.382-.267 12.407.008 3.667-2.196 5.115-2.196 5.115M323.8 17.4s-2.032-1.404-2.032-5.124c0-4.249-.078-8.547-.173-12.883 1.586.069 3.155.099 4.769.099-.132 4.405-.444 8.703-.432 12.784.012 3.708-2.132 5.124-2.132 5.124M347.8 17.4s-2.031-1.403-2.031-5.124c0-4.251-.078-8.551-.174-12.89 1.586.07 3.156.1 4.771.1-.133 4.408-.447 8.708-.435 12.79.012 3.708-2.131 5.124-2.131 5.124M371.8 17.4s-2.07-1.426-2.07-5.119c0-4.177-.061-8.391-.133-12.635 1.565.053 3.119.076 4.707.076-.102 4.298-.343 8.512-.334 12.559.01 3.684-2.17 5.119-2.17 5.119M395.8 17.4s-2.127-1.458-2.127-5.11c0-4.071-.034-8.162-.075-12.271 1.537.03 3.067.043 4.617.043-.058 4.139-.193 8.23-.188 12.228.005 3.646-2.227 5.11-2.227 5.11M419.8 17.4s-2.178-1.487-2.178-5.103c0-3.975-.01-7.956-.023-11.943 1.512.01 3.021.013 4.536.013-.018 3.996-.059 7.977-.057 11.93.001 3.614-2.278 5.103-2.278 5.103M443.8 17.4s-2.2-1.5-2.2-5.1V.5h4.5v11.8c0 3.6-2.3 5.1-2.3 5.1" fill="#000000"/></svg>