<?xml version="1.0" encoding="utf-8"?>
<!-- Generator: Adobe Illustrator 22.0.1, SVG Export Plug-In . SVG Version: 6.00 Build 0)  -->
<svg version="1.1" xmlns="http://www.w3.org/2000/svg" xmlns:xlink="http://www.w3.org/1999/xlink" x="0px" y="0px"
	 viewBox="0 0 24 24" style="enable-background:new 0 0 24 24;" xml:space="preserve">
<style type="text/css">
	.st0{display:none;}
	.st1{display:inline;}
	.st2{fill:none;stroke:#000000;stroke-width:1.000000e-02;stroke-miterlimit:10;}
</style>
<g id="Path_1" class="st0">
	<path class="st1" d="M11.8,17.4c0,0-3.6-2.3-3.6-4.9s2.6-3.6,3.7-3.6s3.7,0.9,3.6,3.6S11.8,17.4,11.8,17.4z"/>
</g>
<g id="Path_2">
	<path class="st0" d="M11.8,17.4c0,0,2.3-1.5,2.3-5.1s0-11.8,0-11.8h-2.3H9.6c0,0,0,8.2,0,11.8S11.8,17.4,11.8,17.4z"/>
</g>
<g id="Path_3">
	<path class="st2" d="M11.8,0.5H2.7C2.4,0.5,2.2,0.7,2.2,1v12.5c0,0.3,0.2,0.5,0.5,0.5l7,0c0.5,2.5,2.1,3.5,2.1,3.5s1.6-1,2.1-3.5
		l7,0c0.3,0,0.5-0.2,0.5-0.5V1c0-0.3-0.2-0.5-0.5-0.5H11.8z"/>
</g>
</svg>
